<svg width="20" height="20" viewBox="0 0 20 20" fill="none" xmlns="http://www.w3.org/2000/svg">
    <path fill="currentColor" d="M18.125 10.677a8.135 8.135 0 1 1-8.802-8.802.627.627 0 0 1 .104 1.25 6.884 6.884 0 1 0 7.448 7.448.627.627 0 1 1 1.25.104Zm-8.75-5.052V10a.625.625 0 0 0 .625.625h4.375a.625.625 0 1 0 0-1.25h-3.75v-3.75a.625.625 0 0 0-1.25 0ZM12.5 3.75a.937.937 0 1 0 0-1.875.937.937 0 0 0 0 1.875Zm2.813 1.875a.937.937 0 1 0 0-1.875.937.937 0 0 0 0 1.875Zm1.875 2.813a.937.937 0 1 0 0-1.875.937.937 0 0 0 0 1.875Z" />
</svg>
