<svg version="1.0" xmlns="http://www.w3.org/2000/svg"
     width="20pt" height="20pt" viewBox="0 0 128.000000 128.000000"
     preserveAspectRatio="xMidYMid meet">
    <g transform="translate(0.000000,128.000000) scale(0.100000,-0.100000)"
       fill="#000000" stroke="none">
        <path d="M913 1250 c-66 -23 -109 -54 -127 -88 -7 -15 -19 -65 -25 -112 l-12
-85 -77 -77 -77 -78 -67 67 c-65 65 -68 69 -68 116 0 27 -7 61 -16 76 -16 26
-239 179 -277 189 -13 3 -36 -13 -78 -54 -32 -32 -59 -64 -59 -72 0 -7 38 -71
84 -142 92 -140 116 -160 188 -160 40 0 48 -5 111 -68 l67 -67 -84 -84 -84
-84 -93 -14 c-107 -16 -129 -27 -163 -86 -52 -89 -67 -217 -34 -282 25 -46 47
-40 82 20 47 80 76 107 105 100 34 -8 81 -54 81 -78 0 -11 -16 -45 -35 -77
-19 -32 -35 -67 -35 -79 0 -19 6 -21 56 -21 49 0 61 4 102 37 117 93 120 97
128 193 l6 88 84 83 84 84 27 -28 27 -27 -27 -28 c-15 -15 -27 -37 -27 -48 0
-13 58 -78 158 -176 173 -171 199 -187 287 -174 54 9 120 61 142 113 16 39 17
101 2 140 -15 40 -318 343 -343 343 -11 0 -33 -12 -48 -27 l-28 -27 -27 27
-28 27 80 80 80 80 80 0 81 0 40 43 c23 23 58 64 78 92 33 44 37 55 34 99 -4
65 -17 68 -94 22 -75 -46 -105 -46 -138 -3 -15 19 -26 43 -26 55 0 23 39 59
106 98 52 31 57 57 14 79 -41 21 -152 19 -217 -5z m99 -70 c-23 -16 -46 -38
-51 -49 -28 -51 5 -147 62 -181 42 -26 103 -25 145 0 39 24 35 16 -27 -62
l-46 -58 -84 0 -84 0 -88 -87 c-84 -82 -90 -86 -106 -70 -16 16 -13 22 66 101
84 84 99 116 57 124 -13 3 -45 -23 -102 -79 -79 -79 -85 -83 -101 -66 -17 16
-13 22 69 105 l86 87 13 93 c11 87 14 95 44 118 41 31 100 52 149 53 l39 1
-41 -30z m-735 -61 c60 -39 111 -76 115 -83 31 -47 -35 -146 -97 -146 -39 0
-49 11 -131 137 l-63 98 31 33 c18 17 33 32 35 32 1 0 51 -32 110 -71z m338
-419 c151 -151 187 -192 177 -202 -10 -10 -51 26 -204 179 -168 168 -204 213
-170 213 4 0 93 -85 197 -190z m-75 -66 c12 -13 1 -27 -73 -102 -87 -87 -105
-123 -71 -136 12 -4 44 21 110 86 89 87 95 91 111 75 16 -16 12 -22 -74 -110
l-91 -92 -5 -85 -6 -85 -58 -52 c-67 -61 -83 -67 -54 -19 40 63 17 144 -51
186 -76 46 -129 35 -187 -40 l-34 -45 6 49 c9 64 49 150 79 169 12 8 61 19
108 26 l85 11 90 90 c49 50 93 90 96 90 4 0 12 -7 19 -16z m680 -432 c0 -78
-90 -149 -162 -127 -12 4 -87 71 -166 148 l-142 141 87 88 88 88 148 -148
c142 -144 147 -150 147 -190z"/>
        <path d="M871 416 c-18 -21 -6 -37 112 -154 105 -105 137 -122 145 -78 3 13
-30 53 -109 132 -63 63 -119 114 -125 114 -6 0 -17 -6 -23 -14z"/>
    </g>
</svg>
