<svg width="20" height="20" viewBox="0 0 20 20" fill="none" xmlns="http://www.w3.org/2000/svg">
    <path d="M18.75 10.0002C18.75 10.1659 18.6842 10.3249 18.5669 10.4421C18.4497 10.5593 18.2908 10.6252 18.125 10.6252H16.0109L13.0594 16.5299C13.0074 16.6337 12.9276 16.721 12.8288 16.782C12.73 16.843 12.6161 16.8752 12.5 16.8752H12.4688C12.3475 16.8692 12.2307 16.828 12.1324 16.7567C12.0342 16.6854 11.9589 16.587 11.9156 16.4736L7.44922 4.74704L4.94375 10.2588C4.89411 10.368 4.81409 10.4606 4.71324 10.5256C4.61239 10.5905 4.49497 10.6251 4.375 10.6252H1.875C1.70924 10.6252 1.55027 10.5593 1.43306 10.4421C1.31585 10.3249 1.25 10.1659 1.25 10.0002C1.25 9.8344 1.31585 9.67543 1.43306 9.55822C1.55027 9.44101 1.70924 9.37516 1.875 9.37516H3.97266L6.93125 2.86657C6.98226 2.75425 7.06536 2.65954 7.17009 2.59437C7.27482 2.52919 7.39649 2.49646 7.51979 2.5003C7.64308 2.50415 7.76248 2.54439 7.86295 2.61596C7.96342 2.68753 8.04046 2.78723 8.08438 2.90251L12.5773 14.6994L15.0656 9.72204C15.1174 9.61791 15.1971 9.53028 15.296 9.469C15.3948 9.40772 15.5087 9.37523 15.625 9.37516H18.125C18.2908 9.37516 18.4497 9.44101 18.5669 9.55822C18.6842 9.67543 18.75 9.8344 18.75 10.0002Z" fill="currentColor"/>
</svg>
