<svg width="20" height="20" viewBox="0 0 20 20" fill="none" xmlns="http://www.w3.org/2000/svg">
    <path d="M7.1875 8.125C6.75485 8.125 6.33192 8.25329 5.97219 8.49366C5.61246 8.73403 5.33208 9.07567 5.16651 9.47538C5.00095 9.87509 4.95763 10.3149 5.04203 10.7393C5.12644 11.1636 5.33478 11.5534 5.6407 11.8593C5.94663 12.1652 6.33641 12.3736 6.76074 12.458C7.18507 12.5424 7.62491 12.4991 8.02462 12.3335C8.42433 12.1679 8.76597 11.8875 9.00634 11.5278C9.24671 11.1681 9.375 10.7451 9.375 10.3125C9.375 9.73234 9.14453 9.17594 8.7343 8.7657C8.32406 8.35547 7.76766 8.125 7.1875 8.125ZM7.1875 11.25C7.00208 11.25 6.82082 11.195 6.66665 11.092C6.51248 10.989 6.39232 10.8426 6.32136 10.6713C6.25041 10.5 6.23184 10.3115 6.26801 10.1296C6.30419 9.94775 6.39348 9.7807 6.52459 9.64959C6.6557 9.51848 6.82275 9.42919 7.0046 9.39301C7.18646 9.35684 7.37496 9.37541 7.54627 9.44636C7.71757 9.51732 7.86399 9.63748 7.967 9.79165C8.07002 9.94582 8.125 10.1271 8.125 10.3125C8.125 10.5611 8.02623 10.7996 7.85041 10.9754C7.6746 11.1512 7.43614 11.25 7.1875 11.25ZM12.8125 8.125C12.3799 8.125 11.9569 8.25329 11.5972 8.49366C11.2375 8.73403 10.9571 9.07567 10.7915 9.47538C10.6259 9.87509 10.5826 10.3149 10.667 10.7393C10.7514 11.1636 10.9598 11.5534 11.2657 11.8593C11.5716 12.1652 11.9614 12.3736 12.3857 12.458C12.8101 12.5424 13.2499 12.4991 13.6496 12.3335C14.0493 12.1679 14.391 11.8875 14.6313 11.5278C14.8717 11.1681 15 10.7451 15 10.3125C15 9.73234 14.7695 9.17594 14.3593 8.7657C13.9491 8.35547 13.3927 8.125 12.8125 8.125ZM12.8125 11.25C12.6271 11.25 12.4458 11.195 12.2917 11.092C12.1375 10.989 12.0173 10.8426 11.9464 10.6713C11.8754 10.5 11.8568 10.3115 11.893 10.1296C11.9292 9.94775 12.0185 9.7807 12.1496 9.64959C12.2807 9.51848 12.4477 9.42919 12.6296 9.39301C12.8115 9.35684 13 9.37541 13.1713 9.44636C13.3426 9.51732 13.489 9.63748 13.592 9.79165C13.695 9.94582 13.75 10.1271 13.75 10.3125C13.75 10.5611 13.6512 10.7996 13.4754 10.9754C13.2996 11.1512 13.0611 11.25 12.8125 11.25ZM10 1.25C5.51953 1.25 1.875 4.75469 1.875 9.0625C1.875 11.7266 3.30234 14.2188 5.625 15.6469V16.875C5.625 17.2065 5.7567 17.5245 5.99112 17.7589C6.22554 17.9933 6.54348 18.125 6.875 18.125H13.125C13.4565 18.125 13.7745 17.9933 14.0089 17.7589C14.2433 17.5245 14.375 17.2065 14.375 16.875V15.6469C16.6977 14.2188 18.125 11.7266 18.125 9.0625C18.125 4.75469 14.4805 1.25 10 1.25ZM13.4469 14.7414C13.3493 14.7955 13.268 14.8748 13.2114 14.971C13.1548 15.0671 13.1249 15.1767 13.125 15.2883V16.875H11.875V15C11.875 14.8342 11.8092 14.6753 11.6919 14.5581C11.5747 14.4408 11.4158 14.375 11.25 14.375C11.0842 14.375 10.9253 14.4408 10.8081 14.5581C10.6908 14.6753 10.625 14.8342 10.625 15V16.875H9.375V15C9.375 14.8342 9.30915 14.6753 9.19194 14.5581C9.07473 14.4408 8.91576 14.375 8.75 14.375C8.58424 14.375 8.42527 14.4408 8.30806 14.5581C8.19085 14.6753 8.125 14.8342 8.125 15V16.875H6.875V15.2883C6.87505 15.1767 6.84523 15.0671 6.78863 14.971C6.73203 14.8748 6.65071 14.7955 6.55312 14.7414C4.43828 13.5695 3.125 11.3938 3.125 9.0625C3.125 5.44375 6.20937 2.5 10 2.5C13.7906 2.5 16.875 5.44375 16.875 9.0625C16.875 11.393 15.5617 13.5695 13.4469 14.7414Z" fill="currentColor"/>
</svg>
