<svg xmlns="http://www.w3.org/2000/svg" width="800" height="800" viewBox="0 0 24 24" fill="none">
    <path d="M18.894 4.344A17.41 17.41 0 0 0 14.532 3c-.192.331-.405.779-.555 1.131-1.622-.235-3.233-.235-4.833 0-.149-.352-.373-.8-.555-1.131-1.536.256-2.997.715-4.364 1.344C1.463 8.419.716 12.397 1.09 16.323A17.78 17.78 0 0 0 6.435 19a13 13 0 0 0 1.141-1.845 11.18 11.18 0 0 1-1.803-.864 6.81 6.81 0 0 0 .437-.341c3.477 1.589 7.244 1.589 10.678 0 .149.117.288.235.437.341a11.18 11.18 0 0 1-1.803.864A13 13 0 0 0 16.665 19c1.739-.533 3.52-1.344 5.345-2.677.459-4.544-.726-8.491-3.116-11.979zM8.056 13.901c-1.045 0-1.899-.949-1.899-2.112s.832-2.112 1.899-2.112c1.056 0 1.92.949 1.899 2.112 0 1.163-.843 2.112-1.899 2.112zm7.009 0c-1.045 0-1.9-.949-1.9-2.112s.833-2.112 1.9-2.112c1.056 0 1.92.949 1.899 2.112 0 1.163-.832 2.112-1.899 2.112z" stroke="currentColor" stroke-linejoin="round"/>
</svg>
