<svg width="20" height="20" viewBox="0 0 20 20" fill="none" xmlns="http://www.w3.org/2000/svg">
    <path d="M18.125 9.375H17.4734C17.3235 7.60894 16.5538 5.95282 15.3005 4.69953C14.0472 3.44624 12.3911 2.67654 10.625 2.52656V1.875C10.625 1.70924 10.5592 1.55027 10.4419 1.43306C10.3247 1.31585 10.1658 1.25 10 1.25C9.83424 1.25 9.67527 1.31585 9.55806 1.43306C9.44085 1.55027 9.375 1.70924 9.375 1.875V2.52656C7.60894 2.67654 5.95282 3.44624 4.69953 4.69953C3.44624 5.95282 2.67654 7.60894 2.52656 9.375H1.875C1.70924 9.375 1.55027 9.44085 1.43306 9.55806C1.31585 9.67527 1.25 9.83424 1.25 10C1.25 10.1658 1.31585 10.3247 1.43306 10.4419C1.55027 10.5592 1.70924 10.625 1.875 10.625H2.52656C2.67654 12.3911 3.44624 14.0472 4.69953 15.3005C5.95282 16.5538 7.60894 17.3235 9.375 17.4734V18.125C9.375 18.2908 9.44085 18.4497 9.55806 18.5669C9.67527 18.6842 9.83424 18.75 10 18.75C10.1658 18.75 10.3247 18.6842 10.4419 18.5669C10.5592 18.4497 10.625 18.2908 10.625 18.125V17.4734C12.3911 17.3235 14.0472 16.5538 15.3005 15.3005C16.5538 14.0472 17.3235 12.3911 17.4734 10.625H18.125C18.2908 10.625 18.4497 10.5592 18.5669 10.4419C18.6842 10.3247 18.75 10.1658 18.75 10C18.75 9.83424 18.6842 9.67527 18.5669 9.55806C18.4497 9.44085 18.2908 9.375 18.125 9.375ZM10.625 16.2188V15.625C10.625 15.4592 10.5592 15.3003 10.4419 15.1831C10.3247 15.0658 10.1658 15 10 15C9.83424 15 9.67527 15.0658 9.55806 15.1831C9.44085 15.3003 9.375 15.4592 9.375 15.625V16.2188C7.94131 16.0725 6.60196 15.4361 5.58292 14.4171C4.56388 13.398 3.92754 12.0587 3.78125 10.625H4.375C4.54076 10.625 4.69973 10.5592 4.81694 10.4419C4.93415 10.3247 5 10.1658 5 10C5 9.83424 4.93415 9.67527 4.81694 9.55806C4.69973 9.44085 4.54076 9.375 4.375 9.375H3.78125C3.92754 7.94131 4.56388 6.60196 5.58292 5.58292C6.60196 4.56388 7.94131 3.92754 9.375 3.78125V4.375C9.375 4.54076 9.44085 4.69973 9.55806 4.81694C9.67527 4.93415 9.83424 5 10 5C10.1658 5 10.3247 4.93415 10.4419 4.81694C10.5592 4.69973 10.625 4.54076 10.625 4.375V3.78125C12.0587 3.92754 13.398 4.56388 14.4171 5.58292C15.4361 6.60196 16.0725 7.94131 16.2188 9.375H15.625C15.4592 9.375 15.3003 9.44085 15.1831 9.55806C15.0658 9.67527 15 9.83424 15 10C15 10.1658 15.0658 10.3247 15.1831 10.4419C15.3003 10.5592 15.4592 10.625 15.625 10.625H16.2188C16.0725 12.0587 15.4361 13.398 14.4171 14.4171C13.398 15.4361 12.0587 16.0725 10.625 16.2188ZM10 6.875C9.38193 6.875 8.77775 7.05828 8.26384 7.40166C7.74994 7.74504 7.3494 8.2331 7.11288 8.80411C6.87635 9.37513 6.81447 10.0035 6.93505 10.6097C7.05562 11.2158 7.35325 11.7727 7.79029 12.2097C8.22733 12.6467 8.78415 12.9444 9.39034 13.065C9.99653 13.1855 10.6249 13.1236 11.1959 12.8871C11.7669 12.6506 12.255 12.2501 12.5983 11.7362C12.9417 11.2223 13.125 10.6181 13.125 10C13.125 9.1712 12.7958 8.37634 12.2097 7.79029C11.6237 7.20424 10.8288 6.875 10 6.875ZM10 11.875C9.62916 11.875 9.26665 11.765 8.95831 11.559C8.64996 11.353 8.40964 11.0601 8.26773 10.7175C8.12581 10.3749 8.08868 9.99792 8.16103 9.63421C8.23337 9.27049 8.41195 8.9364 8.67417 8.67417C8.9364 8.41195 9.27049 8.23337 9.63421 8.16103C9.99792 8.08868 10.3749 8.12581 10.7175 8.26773C11.0601 8.40964 11.353 8.64996 11.559 8.95831C11.765 9.26665 11.875 9.62916 11.875 10C11.875 10.4973 11.6775 10.9742 11.3258 11.3258C10.9742 11.6775 10.4973 11.875 10 11.875Z" fill="currentColor"/>
</svg>
