<svg width="20" height="20" viewBox="0 0 20 20" fill="none" xmlns="http://www.w3.org/2000/svg">
    <path d="M18.5312 11.8647C18.4791 11.719 18.4177 11.5768 18.3477 11.4389L15.0984 4.04669C15.0677 3.9755 15.0237 3.9108 14.9688 3.85607C14.7366 3.62386 14.461 3.43966 14.1576 3.31399C13.8543 3.18832 13.5291 3.12363 13.2008 3.12363C12.8724 3.12363 12.5473 3.18832 12.2439 3.31399C11.9406 3.43966 11.665 3.62386 11.4328 3.85607C11.316 3.973 11.2503 4.13142 11.25 4.29669V6.24982H8.75V4.29669C8.75007 4.21459 8.73395 4.13328 8.70259 4.05741C8.67122 3.98154 8.62521 3.91259 8.56719 3.85451C8.33503 3.6223 8.05941 3.4381 7.75606 3.31243C7.45271 3.18675 7.12757 3.12207 6.79922 3.12207C6.47087 3.12207 6.14573 3.18675 5.84238 3.31243C5.53903 3.4381 5.2634 3.6223 5.03125 3.85451C4.97631 3.90924 4.9323 3.97393 4.90156 4.04513L1.65234 11.4373C1.58226 11.5752 1.52094 11.7175 1.46875 11.8631C1.28477 12.3779 1.21556 12.9267 1.26599 13.471C1.31641 14.0154 1.48524 14.5421 1.76066 15.0144C2.03608 15.4866 2.41141 15.8929 2.86038 16.2048C3.30934 16.5168 3.82107 16.7267 4.35973 16.8201C4.89839 16.9134 5.45094 16.8879 5.97867 16.7452C6.50641 16.6025 6.99657 16.3462 7.41482 15.9941C7.83307 15.6421 8.16929 15.2029 8.39993 14.7072C8.63057 14.2116 8.75005 13.6715 8.75 13.1248V7.49982H11.25V13.1248C11.2497 13.6716 11.369 14.2118 11.5995 14.7076C11.83 15.2033 12.1661 15.6427 12.5843 15.995C13.0025 16.3472 13.4926 16.6037 14.0204 16.7465C14.5481 16.8893 15.1008 16.915 15.6395 16.8218C16.1782 16.7285 16.6901 16.5186 17.1391 16.2067C17.5882 15.8949 17.9636 15.4885 18.2391 15.0163C18.5146 14.544 18.6835 14.0172 18.734 13.4728C18.7845 12.9284 18.7153 12.3795 18.5312 11.8647ZM5.99297 4.66779C6.20134 4.49234 6.46133 4.38975 6.73337 4.37565C7.0054 4.36155 7.2746 4.4367 7.5 4.58966V10.3326C7.01203 9.89447 6.41748 9.59223 5.77592 9.45622C5.13436 9.3202 4.46832 9.35517 3.84453 9.55763L5.99297 4.66779ZM5 15.6248C4.50555 15.6248 4.0222 15.4782 3.61107 15.2035C3.19995 14.9288 2.87952 14.5383 2.6903 14.0815C2.50108 13.6247 2.45157 13.122 2.54804 12.6371C2.6445 12.1521 2.8826 11.7067 3.23223 11.3571C3.58186 11.0074 4.02732 10.7693 4.51227 10.6729C4.99723 10.5764 5.49989 10.6259 5.95671 10.8151C6.41352 11.0043 6.80397 11.3248 7.07867 11.7359C7.35338 12.147 7.5 12.6304 7.5 13.1248C7.5 13.7879 7.23661 14.4237 6.76777 14.8926C6.29893 15.3614 5.66304 15.6248 5 15.6248ZM12.5 4.58888C12.7254 4.43592 12.9946 4.36077 13.2666 4.37487C13.5387 4.38897 13.7987 4.49155 14.007 4.66701L16.1555 9.55607C15.5316 9.35371 14.8655 9.31886 14.224 9.45502C13.5824 9.59118 12.9879 9.89355 12.5 10.3318V4.58888ZM15 15.6248C14.5055 15.6248 14.0222 15.4782 13.6111 15.2035C13.2 14.9288 12.8795 14.5383 12.6903 14.0815C12.5011 13.6247 12.4516 13.122 12.548 12.6371C12.6445 12.1521 12.8826 11.7067 13.2322 11.3571C13.5819 11.0074 14.0273 10.7693 14.5123 10.6729C14.9972 10.5764 15.4999 10.6259 15.9567 10.8151C16.4135 11.0043 16.804 11.3248 17.0787 11.7359C17.3534 12.147 17.5 12.6304 17.5 13.1248C17.5 13.7879 17.2366 14.4237 16.7678 14.8926C16.2989 15.3614 15.663 15.6248 15 15.6248Z" fill="currentColor"/>
</svg>
