<svg width="20" height="20" viewBox="0 0 20 20" fill="none" xmlns="http://www.w3.org/2000/svg">
    <path d="M17.9422 17.0575L14.0305 13.1466C15.1642 11.7854 15.7296 10.0395 15.6089 8.27214C15.4883 6.50475 14.6909 4.85192 13.3826 3.65748C12.0744 2.46304 10.356 1.81895 8.58492 1.8592C6.81388 1.89945 5.12653 2.62094 3.87389 3.87358C2.62125 5.12622 1.89976 6.81357 1.85951 8.58462C1.81926 10.3557 2.46334 12.074 3.65779 13.3823C4.85223 14.6906 6.50506 15.488 8.27244 15.6086C10.0398 15.7293 11.7857 15.1639 13.1469 14.0302L17.0578 17.9419C17.1159 17.9999 17.1848 18.046 17.2607 18.0774C17.3366 18.1089 17.4179 18.125 17.5 18.125C17.5821 18.125 17.6634 18.1089 17.7393 18.0774C17.8152 18.046 17.8841 17.9999 17.9422 17.9419C18.0003 17.8838 18.0463 17.8149 18.0777 17.739C18.1092 17.6631 18.1253 17.5818 18.1253 17.4997C18.1253 17.4176 18.1092 17.3363 18.0777 17.2604C18.0463 17.1845 18.0003 17.1156 17.9422 17.0575ZM3.125 8.74969C3.125 7.63717 3.4549 6.54963 4.07298 5.62461C4.69106 4.69958 5.56957 3.97861 6.5974 3.55287C7.62524 3.12712 8.75624 3.01573 9.84738 3.23277C10.9385 3.44981 11.9408 3.98554 12.7275 4.77221C13.5141 5.55888 14.0499 6.56116 14.2669 7.65231C14.484 8.74345 14.3726 9.87445 13.9468 10.9023C13.5211 11.9301 12.8001 12.8086 11.8751 13.4267C10.9501 14.0448 9.86252 14.3747 8.75 14.3747C7.25866 14.373 5.82888 13.7799 4.77435 12.7253C3.71981 11.6708 3.12665 10.241 3.125 8.74969Z" fill="currentColor"/>
</svg>
