<svg width="24" height="24" viewBox="0 0 24 24" fill="none" xmlns="http://www.w3.org/2000/svg">
    <path d="M19.5 3H17.25V2.25C17.25 2.05109 17.171 1.86032 17.0303 1.71967C16.8897 1.57902 16.6989 1.5 16.5 1.5C16.3011 1.5 16.1103 1.57902 15.9697 1.71967C15.829 1.86032 15.75 2.05109 15.75 2.25V3H8.25V2.25C8.25 2.05109 8.17098 1.86032 8.03033 1.71967C7.88968 1.57902 7.69891 1.5 7.5 1.5C7.30109 1.5 7.11032 1.57902 6.96967 1.71967C6.82902 1.86032 6.75 2.05109 6.75 2.25V3H4.5C4.10218 3 3.72064 3.15804 3.43934 3.43934C3.15804 3.72064 3 4.10218 3 4.5V19.5C3 19.8978 3.15804 20.2794 3.43934 20.5607C3.72064 20.842 4.10218 21 4.5 21H19.5C19.8978 21 20.2794 20.842 20.5607 20.5607C20.842 20.2794 21 19.8978 21 19.5V4.5C21 4.10218 20.842 3.72064 20.5607 3.43934C20.2794 3.15804 19.8978 3 19.5 3ZM6.75 4.5V5.25C6.75 5.44891 6.82902 5.63968 6.96967 5.78033C7.11032 5.92098 7.30109 6 7.5 6C7.69891 6 7.88968 5.92098 8.03033 5.78033C8.17098 5.63968 8.25 5.44891 8.25 5.25V4.5H15.75V5.25C15.75 5.44891 15.829 5.63968 15.9697 5.78033C16.1103 5.92098 16.3011 6 16.5 6C16.6989 6 16.8897 5.92098 17.0303 5.78033C17.171 5.63968 17.25 5.44891 17.25 5.25V4.5H19.5V7.5H4.5V4.5H6.75ZM19.5 19.5H4.5V9H19.5V19.5ZM14.7806 12.5306L13.0603 14.25L14.7806 15.9694C14.8503 16.0391 14.9056 16.1218 14.9433 16.2128C14.981 16.3039 15.0004 16.4015 15.0004 16.5C15.0004 16.5985 14.981 16.6961 14.9433 16.7872C14.9056 16.8782 14.8503 16.9609 14.7806 17.0306C14.7109 17.1003 14.6282 17.1556 14.5372 17.1933C14.4461 17.231 14.3485 17.2504 14.25 17.2504C14.1515 17.2504 14.0539 17.231 13.9628 17.1933C13.8718 17.1556 13.7891 17.1003 13.7194 17.0306L12 15.3103L10.2806 17.0306C10.2109 17.1003 10.1282 17.1556 10.0372 17.1933C9.94613 17.231 9.84855 17.2504 9.75 17.2504C9.65145 17.2504 9.55387 17.231 9.46283 17.1933C9.37178 17.1556 9.28906 17.1003 9.21937 17.0306C9.14969 16.9609 9.09442 16.8782 9.0567 16.7872C9.01899 16.6961 8.99958 16.5985 8.99958 16.5C8.99958 16.4015 9.01899 16.3039 9.0567 16.2128C9.09442 16.1218 9.14969 16.0391 9.21937 15.9694L10.9397 14.25L9.21937 12.5306C9.07864 12.3899 8.99958 12.199 8.99958 12C8.99958 11.801 9.07864 11.6101 9.21937 11.4694C9.36011 11.3286 9.55098 11.2496 9.75 11.2496C9.94902 11.2496 10.1399 11.3286 10.2806 11.4694L12 13.1897L13.7194 11.4694C13.7891 11.3997 13.8718 11.3444 13.9628 11.3067C14.0539 11.269 14.1515 11.2496 14.25 11.2496C14.3485 11.2496 14.4461 11.269 14.5372 11.3067C14.6282 11.3444 14.7109 11.3997 14.7806 11.4694C14.8503 11.5391 14.9056 11.6218 14.9433 11.7128C14.981 11.8039 15.0004 11.9015 15.0004 12C15.0004 12.0985 14.981 12.1961 14.9433 12.2872C14.9056 12.3782 14.8503 12.4609 14.7806 12.5306Z" fill="currentColor"/>
</svg>
