<svg width="24" height="24" viewBox="0 0 24 24" fill="none" xmlns="http://www.w3.org/2000/svg">
    <path d="M12 7.49955C11.11 7.49955 10.24 7.76347 9.49993 8.25794C8.75991 8.75241 8.18313 9.45521 7.84254 10.2775C7.50195 11.0997 7.41283 12.0045 7.58646 12.8775C7.7601 13.7504 8.18868 14.5522 8.81802 15.1815C9.44735 15.8109 10.2492 16.2395 11.1221 16.4131C11.995 16.5867 12.8998 16.4976 13.7221 16.157C14.5443 15.8164 15.2471 15.2396 15.7416 14.4996C16.2361 13.7596 16.5 12.8896 16.5 11.9996C16.4988 10.8065 16.0243 9.66259 15.1806 8.81894C14.337 7.9753 13.1931 7.50079 12 7.49955ZM12 14.9996C11.4067 14.9996 10.8266 14.8236 10.3333 14.494C9.83994 14.1643 9.45542 13.6958 9.22836 13.1476C9.00129 12.5994 8.94188 11.9962 9.05764 11.4143C9.1734 10.8323 9.45912 10.2978 9.87868 9.87823C10.2982 9.45868 10.8328 9.17295 11.4147 9.0572C11.9967 8.94144 12.5999 9.00085 13.148 9.22792C13.6962 9.45498 14.1648 9.8395 14.4944 10.3328C14.824 10.8262 15 11.4062 15 11.9996C15 12.7952 14.6839 13.5583 14.1213 14.1209C13.5587 14.6835 12.7956 14.9996 12 14.9996ZM20.25 12.2021C20.2537 12.0671 20.2537 11.9321 20.25 11.7971L21.6487 10.0496C21.7221 9.9578 21.7729 9.85011 21.797 9.73514C21.8211 9.62018 21.8178 9.50116 21.7875 9.38768C21.5582 8.52574 21.2152 7.69816 20.7675 6.92674C20.7089 6.82579 20.6275 6.73991 20.5299 6.67595C20.4322 6.61199 20.321 6.5717 20.205 6.5583L17.9812 6.3108C17.8887 6.2133 17.795 6.11955 17.7 6.02955L17.4375 3.80018C17.424 3.68413 17.3836 3.57284 17.3194 3.47518C17.2553 3.37752 17.1692 3.29619 17.0681 3.23768C16.2964 2.79082 15.4689 2.44815 14.6072 2.21862C14.4936 2.18843 14.3746 2.18534 14.2596 2.2096C14.1446 2.23387 14.037 2.2848 13.9453 2.3583L12.2025 3.74955C12.0675 3.74955 11.9325 3.74955 11.7975 3.74955L10.05 2.35362C9.95824 2.28027 9.85055 2.22951 9.73558 2.20541C9.62062 2.18131 9.5016 2.18455 9.38812 2.21487C8.52632 2.44458 7.6988 2.78757 6.92718 3.23487C6.82623 3.29348 6.74036 3.37486 6.67639 3.47251C6.61243 3.57017 6.57215 3.6814 6.55875 3.79737L6.31125 6.02487C6.21375 6.11799 6.12 6.21174 6.03 6.30612L3.80062 6.56205C3.68457 6.57556 3.57328 6.61598 3.47562 6.68011C3.37796 6.74424 3.29663 6.8303 3.23812 6.93143C2.79126 7.70315 2.44859 8.53066 2.21906 9.39237C2.18887 9.50592 2.18578 9.62498 2.21004 9.73995C2.23431 9.85491 2.28524 9.96257 2.35875 10.0542L3.75 11.7971C3.75 11.9321 3.75 12.0671 3.75 12.2021L2.35406 13.9496C2.28072 14.0413 2.22995 14.149 2.20585 14.264C2.18175 14.3789 2.18499 14.4979 2.21531 14.6114C2.44461 15.4734 2.78762 16.3009 3.23531 17.0724C3.29393 17.1733 3.3753 17.2592 3.47296 17.3232C3.57061 17.3871 3.68184 17.4274 3.79781 17.4408L6.02156 17.6883C6.11468 17.7858 6.20843 17.8796 6.30281 17.9696L6.5625 20.1989C6.576 20.315 6.61643 20.4263 6.68056 20.5239C6.74469 20.6216 6.83075 20.7029 6.93187 20.7614C7.70359 21.2083 8.5311 21.551 9.39281 21.7805C9.50636 21.8107 9.62542 21.8138 9.74039 21.7895C9.85536 21.7652 9.96301 21.7143 10.0547 21.6408L11.7975 20.2496C11.9325 20.2533 12.0675 20.2533 12.2025 20.2496L13.95 21.6483C14.0417 21.7216 14.1494 21.7724 14.2644 21.7965C14.3794 21.8206 14.4984 21.8174 14.6119 21.7871C15.4738 21.5578 16.3014 21.2147 17.0728 20.7671C17.1738 20.7084 17.2596 20.6271 17.3236 20.5294C17.3876 20.4318 17.4278 20.3205 17.4412 20.2046L17.6887 17.9808C17.7862 17.8883 17.88 17.7946 17.97 17.6996L20.1994 17.4371C20.3154 17.4236 20.4267 17.3831 20.5244 17.319C20.622 17.2549 20.7034 17.1688 20.7619 17.0677C21.2087 16.296 21.5514 15.4685 21.7809 14.6067C21.8111 14.4932 21.8142 14.3741 21.7899 14.2592C21.7657 14.1442 21.7147 14.0365 21.6412 13.9449L20.25 12.2021ZM18.7406 11.5927C18.7566 11.8637 18.7566 12.1354 18.7406 12.4064C18.7295 12.592 18.7876 12.7751 18.9037 12.9202L20.2341 14.5824C20.0814 15.0675 19.886 15.5381 19.65 15.9886L17.5312 16.2286C17.3467 16.2491 17.1764 16.3373 17.0531 16.4761C16.8727 16.6791 16.6805 16.8713 16.4775 17.0517C16.3387 17.175 16.2505 17.3454 16.23 17.5299L15.9947 19.6467C15.5442 19.8828 15.0736 20.0783 14.5884 20.2308L12.9253 18.9005C12.7922 18.7942 12.6269 18.7363 12.4566 18.7364H12.4116C12.1405 18.7524 11.8688 18.7524 11.5978 18.7364C11.4123 18.7253 11.2292 18.7834 11.0841 18.8996L9.41718 20.2308C8.93206 20.0782 8.46146 19.8827 8.01093 19.6467L7.77093 17.5308C7.75045 17.3463 7.66227 17.1759 7.52343 17.0527C7.32047 16.8722 7.12827 16.68 6.94781 16.4771C6.82456 16.3382 6.6542 16.25 6.46968 16.2296L4.35281 15.9933C4.11674 15.5428 3.92128 15.0722 3.76875 14.5871L5.09906 12.9239C5.21522 12.7788 5.27335 12.5957 5.26218 12.4102C5.24625 12.1392 5.24625 11.8674 5.26218 11.5964C5.27335 11.4109 5.21522 11.2278 5.09906 11.0827L3.76875 9.41674C3.9214 8.93162 4.11685 8.46102 4.35281 8.01049L6.46875 7.77049C6.65326 7.75001 6.82362 7.66182 6.94687 7.52299C7.12733 7.32003 7.31954 7.12783 7.5225 6.94737C7.66188 6.82404 7.75043 6.65329 7.77093 6.4683L8.00625 4.35237C8.45672 4.1163 8.92733 3.92084 9.4125 3.7683L11.0756 5.09862C11.2207 5.21478 11.4038 5.27291 11.5894 5.26174C11.8604 5.2458 12.1321 5.2458 12.4031 5.26174C12.5887 5.27291 12.7718 5.21478 12.9169 5.09862L14.5828 3.7683C15.0679 3.92095 15.5385 4.11641 15.9891 4.35237L16.2291 6.4683C16.2495 6.65282 16.3377 6.82318 16.4766 6.94643C16.6795 7.12689 16.8717 7.31909 17.0522 7.52205C17.1754 7.66089 17.3458 7.74907 17.5303 7.76955L19.6472 8.00487C19.8833 8.45534 20.0787 8.92595 20.2312 9.41112L18.9009 11.0742C18.7837 11.2206 18.7255 11.4056 18.7378 11.5927H18.7406Z" fill="currentColor"/>
</svg>
