<svg width="20" height="20" viewBox="0 0 20 20" fill="none" xmlns="http://www.w3.org/2000/svg">
    <path d="M10.9375 14.0625C10.9375 14.2479 10.8825 14.4292 10.7795 14.5833C10.6765 14.7375 10.5301 14.8577 10.3588 14.9286C10.1875 14.9996 9.99896 15.0182 9.81711 14.982C9.63525 14.9458 9.4682 14.8565 9.33709 14.7254C9.20598 14.5943 9.11669 14.4273 9.08052 14.2454C9.04434 14.0635 9.06291 13.875 9.13387 13.7037C9.20482 13.5324 9.32499 13.386 9.47916 13.283C9.63333 13.18 9.81458 13.125 10 13.125C10.2486 13.125 10.4871 13.2238 10.6629 13.3996C10.8387 13.5754 10.9375 13.8139 10.9375 14.0625ZM10 5.625C8.27657 5.625 6.875 6.88672 6.875 8.4375V8.75C6.875 8.91576 6.94085 9.07473 7.05806 9.19194C7.17527 9.30915 7.33424 9.375 7.5 9.375C7.66576 9.375 7.82474 9.30915 7.94195 9.19194C8.05916 9.07473 8.125 8.91576 8.125 8.75V8.4375C8.125 7.57812 8.96641 6.875 10 6.875C11.0336 6.875 11.875 7.57812 11.875 8.4375C11.875 9.29688 11.0336 10 10 10C9.83424 10 9.67527 10.0658 9.55806 10.1831C9.44085 10.3003 9.375 10.4592 9.375 10.625V11.25C9.375 11.4158 9.44085 11.5747 9.55806 11.6919C9.67527 11.8092 9.83424 11.875 10 11.875C10.1658 11.875 10.3247 11.8092 10.4419 11.6919C10.5592 11.5747 10.625 11.4158 10.625 11.25V11.1938C12.05 10.932 13.125 9.79531 13.125 8.4375C13.125 6.88672 11.7234 5.625 10 5.625ZM18.125 10C18.125 11.607 17.6485 13.1779 16.7557 14.514C15.8629 15.8502 14.594 16.8916 13.1093 17.5065C11.6247 18.1215 9.99099 18.2824 8.4149 17.9689C6.8388 17.6554 5.39106 16.8815 4.25476 15.7452C3.11846 14.6089 2.34463 13.1612 2.03112 11.5851C1.71762 10.009 1.87852 8.37535 2.49348 6.8907C3.10844 5.40605 4.14985 4.1371 5.486 3.24431C6.82214 2.35152 8.39303 1.875 10 1.875C12.1542 1.87727 14.2195 2.73403 15.7427 4.25727C17.266 5.78051 18.1227 7.84581 18.125 10ZM16.875 10C16.875 8.64025 16.4718 7.31104 15.7164 6.18045C14.9609 5.04987 13.8872 4.16868 12.631 3.64833C11.3747 3.12798 9.99238 2.99183 8.65876 3.2571C7.32514 3.52237 6.10013 4.17716 5.13864 5.13864C4.17716 6.10013 3.52238 7.32513 3.2571 8.65875C2.99183 9.99237 3.12798 11.3747 3.64833 12.6309C4.16868 13.8872 5.04987 14.9609 6.18046 15.7164C7.31105 16.4718 8.64026 16.875 10 16.875C11.8227 16.8729 13.5702 16.1479 14.8591 14.8591C16.1479 13.5702 16.8729 11.8227 16.875 10Z" fill="currentColor"/>
</svg>
